<svg xmlns="http://www.w3.org/2000/svg" viewBox="0 0 335.88 335.88"><title>Asset 6</title><g id="Layer_2" data-name="Layer 2"><g id="Layer_1-2" data-name="Layer 1"><path d="M299.38,147.3c88.2-113.69,2.89-199-110.81-110.8a33.64,33.64,0,0,1-41.27,0C33.61-51.71-51.71,33.61,36.5,147.3a33.64,33.64,0,0,1,0,41.27c-88.21,113.7-2.89,199,110.8,110.81a33.64,33.64,0,0,1,41.27,0c113.7,88.2,199,2.89,110.81-110.81A33.64,33.64,0,0,1,299.38,147.3Zm-130,84.12c-72.81,68.36-131.84,9.34-63.48-63.48-68.36-72.82-9.33-131.85,63.48-63.48,72.82-68.37,131.85-9.34,63.49,63.48C301.21,240.76,242.18,299.78,169.36,231.42Z" /></g></g></svg>