<svg xmlns="http://www.w3.org/2000/svg" viewBox="0 0 415.96 390.17"><title>Asset 7</title><g id="Layer_2" data-name="Layer 2"><g id="Layer_1-2" data-name="Layer 1"><path d="M372.9,66.26a95.3,95.3,0,0,1,19.87,28.19,113.7,113.7,0,0,1,9.12,33.09,147.21,147.21,0,0,1,.17,34,195.21,195.21,0,0,1-6.57,33.11,228.25,228.25,0,0,1-11.78,31.46,268.49,268.49,0,0,1-16,29.41,281.45,281.45,0,0,1-19.44,27.15q-10.57,12.92-22.38,24.7a298.86,298.86,0,0,1-52.26,41.19,261.88,261.88,0,0,1-29.42,15.75A223,223,0,0,1,212.86,376a188.54,188.54,0,0,1-32.94,6.47,145.36,145.36,0,0,1-33.74-.29,111.42,111.42,0,0,1-32.65-9.21,89.22,89.22,0,0,1-45.68-48,110.32,110.32,0,0,1-7.35-32.3,141.13,141.13,0,0,1,1.21-32.75,194.27,194.27,0,0,1,7.65-31.66,251.35,251.35,0,0,1,28.37-58.13A279.17,279.17,0,0,1,116.8,144q10.23-12.54,21.67-24a325.86,325.86,0,0,1,50-40.94,281.19,281.19,0,0,1,28-16.39,230.35,230.35,0,0,1,30-12.79,189.77,189.77,0,0,1,31.78-8.08,140.88,140.88,0,0,1,33.12-1.56,110.05,110.05,0,0,1,32.85,7.45A94.62,94.62,0,0,1,372.9,66.26Zm-8.37,8.37A83.46,83.46,0,0,0,340,57.21a103.24,103.24,0,0,0-29.59-8.41,136.11,136.11,0,0,0-31.4-.54,182.55,182.55,0,0,0-31.29,5.81,213.92,213.92,0,0,0-30.19,10.84,252.31,252.31,0,0,0-28.5,15A275.69,275.69,0,0,0,138.48,120q-11.35,11.51-21.55,24.08A275.14,275.14,0,0,0,98.24,170.4c-11.38,18.26-20.7,37.88-26.67,58.5a178.89,178.89,0,0,0-6.25,31.42,136.73,136.73,0,0,0,.2,31.78A103.14,103.14,0,0,0,74,322.23a85,85,0,0,0,17.92,25,84.2,84.2,0,0,0,25.69,16.29,102.4,102.4,0,0,0,29.79,6.66,132.94,132.94,0,0,0,30.78-1.31,186.28,186.28,0,0,0,30.14-7.42,223.79,223.79,0,0,0,28.78-12,269.81,269.81,0,0,0,27.07-15.66A300.22,300.22,0,0,0,312.48,294c7.32-7.46,14.29-15.25,20.83-23.38a273,273,0,0,0,18.33-25.3,264.37,264.37,0,0,0,15.42-27.08,216.63,216.63,0,0,0,11.84-28.68,178.53,178.53,0,0,0,7.33-30,131.2,131.2,0,0,0,1.19-30.51,100.44,100.44,0,0,0-6.75-29.34A82.71,82.71,0,0,0,364.53,74.63Z"/><g id="Layer_1-2-2" data-name="Layer 1-2"><path d="M416,339.92c-41.39,4.89-45.36,8.86-50.26,50.25-4.9-41.39-8.87-45.36-50.25-50.25C356.83,335,360.8,331,365.7,289.66c2.63,22.2,5,33.63,13,40.22C385.62,335.57,396.76,337.64,416,339.92Z"/></g><g id="Layer_1-2-3" data-name="Layer 1-2"><path d="M345.39,172.69c-142.22,16.84-155.85,30.47-172.7,172.7C155.85,203.15,142.21,189.51,0,172.69,142.21,155.85,155.85,142.21,172.69,0c9,76.27,17.13,115.56,44.66,138.2C241.13,157.77,279.42,164.88,345.39,172.69Z"/></g></g></g></svg>