<svg xmlns="http://www.w3.org/2000/svg" viewBox="0 0 249.13 153.59"><path d="M248.79,111.51c3.91-14.16-26.34-35.51-72.2-53.2a55.32,55.32,0,0,0-87-24C41.16,26,4.25,28.78.34,42.94s26.33,35.51,72.2,53.21a55.31,55.31,0,0,0,87,24C208,128.49,244.88,125.68,248.79,111.51ZM137.71,29.61a49.36,49.36,0,0,1,19.47,84.68,385.84,385.84,0,0,1-40.38-8.91A383.83,383.83,0,0,1,77.55,92.31a49.37,49.37,0,0,1,60.16-62.7ZM19.42,48.45c3-10.9,29.11-13.85,64.65-9a55.22,55.22,0,0,0-13.53,50C37.41,75.35,16.4,59.37,19.42,48.45Zm92,76.39A49.22,49.22,0,0,1,80.29,99.05c11,4,22.81,7.78,35.16,11.19s24.42,6.22,35.93,8.43A49.26,49.26,0,0,1,111.42,124.84Zm53.26-9.43a55.26,55.26,0,0,0,14-49.83c33,14,53.89,30,50.89,40.87S200.35,120.32,164.68,115.41Z" /><circle cx="173.75" cy="148.09" r="5.51"/><circle cx="80.29" cy="4.34" r="4.34"/><path d="M41.66,113a9.14,9.14,0,0,1,9.14,9.13h0A9.13,9.13,0,0,1,59.93,113h0a9.13,9.13,0,0,1-9.13-9.13h0A9.13,9.13,0,0,1,41.66,113Z"/><path d="M185.71,35.91a7.89,7.89,0,0,1,7.89,7.88h0a7.88,7.88,0,0,1,7.88-7.88h0A7.88,7.88,0,0,1,193.6,28h0a7.9,7.9,0,0,1-7.89,7.89Z"/></svg>