<svg xmlns="http://www.w3.org/2000/svg" viewBox="0 0 257.74 110.79"><path d="M257.74,55.4c0-14.7-34.84-27.23-83.75-32.09a55.32,55.32,0,0,0-90.24,0C34.84,28.18,0,40.7,0,55.4S34.83,82.62,83.75,87.48a55.32,55.32,0,0,0,90.24,0C222.9,82.62,257.74,70.09,257.74,55.4ZM128.87,6a49.35,49.35,0,0,1,41.3,76.44,383.45,383.45,0,0,1-41.3,2.16,383.45,383.45,0,0,1-41.3-2.16A49.35,49.35,0,0,1,128.87,6Zm-109,49.63c0-11.31,24.38-21.09,59.92-25.87A55.25,55.25,0,0,0,80,81.53C44.35,76.77,19.86,67,19.86,55.63Zm109,49.16A49.27,49.27,0,0,1,92,88.21c11.69.93,24.06,1.43,36.88,1.43s25.19-.5,36.87-1.43A49.23,49.23,0,0,1,128.87,104.79ZM177.7,81.53A55.21,55.21,0,0,0,178,29.76c35.55,4.77,59.93,14.56,59.93,25.87S213.38,76.77,177.7,81.53Z"/></svg>